<?xml version="1.0" encoding="UTF-8"?>
<svg xmlns="http://www.w3.org/2000/svg" xmlns:xlink="http://www.w3.org/1999/xlink" width="25px" height="25px" viewBox="0 0 25 25" version="1.1">
<defs>
<clipPath id="clip1">
  <path d="M 14 14 L 22.203125 14 L 22.203125 22.203125 L 14 22.203125 Z M 14 14 "/>
</clipPath>
</defs>
<g id="surface1">
<path style=" stroke:none;fill-rule:nonzero;fill:rgb(56.862748%,56.862748%,56.862748%);fill-opacity:1;" d="M 10.617188 18.226562 C 10.308594 18.226562 10.003906 18.207031 9.695312 18.171875 C 9.390625 18.132812 9.089844 18.078125 8.789062 18.003906 C 8.488281 17.925781 8.195312 17.835938 7.90625 17.722656 C 7.621094 17.613281 7.339844 17.484375 7.066406 17.339844 C 6.792969 17.195312 6.535156 17.035156 6.28125 16.855469 C 6.027344 16.675781 5.785156 16.484375 5.558594 16.277344 C 5.332031 16.070312 5.113281 15.851562 4.914062 15.617188 C 4.710938 15.382812 4.527344 15.136719 4.355469 14.882812 C 4.183594 14.625 4.027344 14.359375 3.886719 14.082031 C 3.75 13.808594 3.628906 13.527344 3.523438 13.234375 C 3.421875 12.945312 3.335938 12.648438 3.269531 12.347656 C 3.199219 12.046875 3.152344 11.742188 3.121094 11.433594 C 3.089844 11.128906 3.078125 10.820312 3.085938 10.511719 C 3.09375 10.203125 3.121094 9.894531 3.167969 9.589844 C 3.210938 9.285156 3.277344 8.984375 3.355469 8.6875 C 3.441406 8.390625 3.539062 8.097656 3.660156 7.816406 C 3.777344 7.527344 3.910156 7.253906 4.0625 6.984375 C 4.214844 6.714844 4.382812 6.457031 4.566406 6.210938 C 4.75 5.960938 4.949219 5.726562 5.160156 5.503906 C 5.375 5.277344 5.601562 5.070312 5.839844 4.875 C 6.078125 4.679688 6.328125 4.496094 6.589844 4.332031 C 6.847656 4.167969 7.117188 4.019531 7.398438 3.886719 C 7.675781 3.753906 7.964844 3.644531 8.253906 3.542969 C 8.550781 3.449219 8.847656 3.371094 9.148438 3.308594 C 9.449219 3.25 9.757812 3.207031 10.066406 3.1875 C 10.371094 3.164062 10.679688 3.160156 10.988281 3.175781 C 11.296875 3.191406 11.601562 3.222656 11.90625 3.277344 C 12.210938 3.332031 12.511719 3.402344 12.804688 3.492188 C 13.097656 3.582031 13.386719 3.691406 13.671875 3.816406 C 13.953125 3.941406 14.226562 4.082031 14.488281 4.238281 C 14.753906 4.398438 15.007812 4.574219 15.253906 4.761719 C 15.496094 4.953125 15.726562 5.160156 15.941406 5.375 C 16.472656 5.902344 16.910156 6.496094 17.261719 7.152344 C 17.613281 7.808594 17.863281 8.5 18.003906 9.230469 C 18.152344 9.960938 18.1875 10.699219 18.113281 11.4375 C 18.042969 12.179688 17.863281 12.894531 17.578125 13.582031 C 17.292969 14.269531 16.914062 14.902344 16.441406 15.476562 C 15.96875 16.050781 15.421875 16.546875 14.800781 16.960938 C 14.183594 17.375 13.519531 17.691406 12.804688 17.90625 C 12.089844 18.121094 11.363281 18.230469 10.617188 18.226562 Z M 10.617188 4.824219 C 10.394531 4.824219 10.167969 4.839844 9.945312 4.863281 C 9.722656 4.886719 9.503906 4.925781 9.285156 4.976562 C 9.066406 5.027344 8.847656 5.089844 8.636719 5.164062 C 8.425781 5.238281 8.21875 5.328125 8.019531 5.425781 C 7.816406 5.527344 7.621094 5.636719 7.429688 5.757812 C 7.242188 5.878906 7.058594 6.011719 6.886719 6.152344 C 6.714844 6.292969 6.546875 6.445312 6.390625 6.605469 C 6.234375 6.769531 6.085938 6.9375 5.949219 7.117188 C 5.8125 7.292969 5.6875 7.480469 5.570312 7.671875 C 5.457031 7.863281 5.351562 8.0625 5.257812 8.269531 C 5.164062 8.472656 5.082031 8.683594 5.011719 8.894531 C 4.945312 9.109375 4.886719 9.324219 4.84375 9.546875 C 4.800781 9.765625 4.769531 9.988281 4.75 10.214844 C 4.730469 10.4375 4.726562 10.660156 4.730469 10.886719 C 4.738281 11.109375 4.761719 11.332031 4.792969 11.554688 C 4.824219 11.777344 4.871094 11.996094 4.925781 12.214844 C 4.988281 12.433594 5.058594 12.644531 5.136719 12.855469 C 5.222656 13.0625 5.316406 13.269531 5.417969 13.464844 C 5.527344 13.664062 5.644531 13.855469 5.769531 14.039062 C 5.898438 14.222656 6.035156 14.402344 6.183594 14.570312 C 6.332031 14.738281 6.488281 14.902344 6.65625 15.050781 C 6.824219 15.203125 6.996094 15.34375 7.179688 15.472656 C 7.363281 15.605469 7.550781 15.726562 7.746094 15.835938 C 7.941406 15.945312 8.144531 16.042969 8.355469 16.128906 C 8.558594 16.214844 8.773438 16.289062 8.988281 16.347656 C 9.207031 16.410156 9.425781 16.460938 9.644531 16.496094 C 9.867188 16.535156 10.089844 16.558594 10.316406 16.570312 C 10.539062 16.582031 10.761719 16.578125 10.988281 16.566406 C 11.210938 16.550781 11.433594 16.523438 11.65625 16.480469 C 11.875 16.441406 12.09375 16.386719 12.308594 16.324219 C 12.523438 16.257812 12.734375 16.183594 12.941406 16.089844 C 13.148438 16.003906 13.347656 15.902344 13.542969 15.789062 C 13.738281 15.675781 13.925781 15.554688 14.105469 15.421875 C 14.285156 15.285156 14.457031 15.144531 14.621094 14.988281 C 14.785156 14.835938 14.941406 14.675781 15.085938 14.503906 C 15.230469 14.332031 15.367188 14.152344 15.492188 13.964844 C 15.613281 13.777344 15.730469 13.582031 15.832031 13.386719 C 15.933594 13.183594 16.027344 12.980469 16.105469 12.769531 C 16.183594 12.558594 16.25 12.34375 16.304688 12.128906 C 16.359375 11.910156 16.402344 11.6875 16.429688 11.464844 C 16.460938 11.242188 16.476562 11.019531 16.480469 10.792969 C 16.484375 10.570312 16.472656 10.347656 16.453125 10.121094 C 16.429688 9.898438 16.394531 9.675781 16.347656 9.457031 C 16.300781 9.238281 16.238281 9.019531 16.167969 8.808594 C 16.097656 8.597656 16.011719 8.386719 15.914062 8.183594 C 15.816406 7.980469 15.710938 7.785156 15.589844 7.59375 C 15.472656 7.402344 15.34375 7.222656 15.203125 7.042969 C 15.066406 6.871094 14.914062 6.699219 14.753906 6.542969 C 14.207031 5.996094 13.574219 5.570312 12.855469 5.273438 C 12.140625 4.976562 11.394531 4.824219 10.617188 4.824219 Z M 10.617188 4.824219 "/>
<g clip-path="url(#clip1)" clip-rule="nonzero">
<path style=" stroke:none;fill-rule:nonzero;fill:rgb(56.862748%,56.862748%,56.862748%);fill-opacity:1;" d="M 21.292969 22.203125 C 21.066406 22.203125 20.871094 22.121094 20.710938 21.960938 L 14.773438 16.027344 C 14.695312 15.949219 14.636719 15.859375 14.59375 15.757812 C 14.550781 15.65625 14.53125 15.550781 14.53125 15.441406 C 14.53125 15.332031 14.550781 15.226562 14.59375 15.125 C 14.636719 15.023438 14.695312 14.933594 14.773438 14.855469 C 14.851562 14.777344 14.941406 14.71875 15.042969 14.675781 C 15.144531 14.632812 15.246094 14.613281 15.359375 14.613281 C 15.46875 14.613281 15.574219 14.632812 15.675781 14.675781 C 15.777344 14.71875 15.867188 14.777344 15.941406 14.855469 L 21.878906 20.792969 C 21.996094 20.910156 22.070312 21.050781 22.101562 21.214844 C 22.136719 21.378906 22.121094 21.539062 22.054688 21.691406 C 21.992188 21.847656 21.890625 21.972656 21.753906 22.0625 C 21.613281 22.15625 21.460938 22.203125 21.292969 22.203125 Z M 21.292969 22.203125 "/>
</g>
</g>
</svg>
