<?xml version="1.0" encoding="UTF-8"?>
<svg xmlns="http://www.w3.org/2000/svg" xmlns:xlink="http://www.w3.org/1999/xlink" width="36px" height="36px" viewBox="0 0 36 36" version="1.1">
<defs>
<clipPath id="clip1">
  <path d="M 15.097656 15.097656 L 20.425781 15.097656 L 20.425781 20.425781 L 15.097656 20.425781 Z M 15.097656 15.097656 "/>
</clipPath>
<clipPath id="clip2">
  <path d="M 17.765625 15.097656 C 16.289062 15.097656 15.097656 16.289062 15.097656 17.765625 C 15.097656 19.234375 16.289062 20.425781 17.765625 20.425781 C 19.234375 20.425781 20.425781 19.234375 20.425781 17.765625 C 20.425781 16.289062 19.234375 15.097656 17.765625 15.097656 Z M 17.765625 15.097656 "/>
</clipPath>
<clipPath id="clip3">
  <path d="M 23.980469 15.097656 L 29.308594 15.097656 L 29.308594 20.425781 L 23.980469 20.425781 Z M 23.980469 15.097656 "/>
</clipPath>
<clipPath id="clip4">
  <path d="M 26.644531 15.097656 C 25.171875 15.097656 23.980469 16.289062 23.980469 17.765625 C 23.980469 19.234375 25.171875 20.425781 26.644531 20.425781 C 28.117188 20.425781 29.308594 19.234375 29.308594 17.765625 C 29.308594 16.289062 28.117188 15.097656 26.644531 15.097656 Z M 26.644531 15.097656 "/>
</clipPath>
<clipPath id="clip5">
  <path d="M 6.003906 15.097656 L 11.332031 15.097656 L 11.332031 20.425781 L 6.003906 20.425781 Z M 6.003906 15.097656 "/>
</clipPath>
<clipPath id="clip6">
  <path d="M 8.671875 15.097656 C 7.195312 15.097656 6.003906 16.289062 6.003906 17.765625 C 6.003906 19.234375 7.195312 20.425781 8.671875 20.425781 C 10.140625 20.425781 11.332031 19.234375 11.332031 17.765625 C 11.332031 16.289062 10.140625 15.097656 8.671875 15.097656 Z M 8.671875 15.097656 "/>
</clipPath>
</defs>
<g id="surface1">
<g clip-path="url(#clip1)" clip-rule="nonzero">
<g clip-path="url(#clip2)" clip-rule="nonzero">
<path style=" stroke:none;fill-rule:nonzero;fill:rgb(30.980393%,30.980393%,30.980393%);fill-opacity:1;" d="M 15.097656 15.097656 L 20.425781 15.097656 L 20.425781 20.425781 L 15.097656 20.425781 Z M 15.097656 15.097656 "/>
</g>
</g>
<g clip-path="url(#clip3)" clip-rule="nonzero">
<g clip-path="url(#clip4)" clip-rule="nonzero">
<path style=" stroke:none;fill-rule:nonzero;fill:rgb(65.098041%,65.098041%,65.098041%);fill-opacity:1;" d="M 23.980469 15.097656 L 29.308594 15.097656 L 29.308594 20.425781 L 23.980469 20.425781 Z M 23.980469 15.097656 "/>
</g>
</g>
<g clip-path="url(#clip5)" clip-rule="nonzero">
<g clip-path="url(#clip6)" clip-rule="nonzero">
<path style=" stroke:none;fill-rule:nonzero;fill:rgb(0%,0%,0%);fill-opacity:1;" d="M 6.003906 15.097656 L 11.332031 15.097656 L 11.332031 20.425781 L 6.003906 20.425781 Z M 6.003906 15.097656 "/>
</g>
</g>
</g>
</svg>
