<?xml version="1.0" encoding="UTF-8"?>
<svg xmlns="http://www.w3.org/2000/svg" xmlns:xlink="http://www.w3.org/1999/xlink" width="36px" height="36px" viewBox="0 0 36 36" version="1.1">
<defs>
<clipPath id="clip1">
  <path d="M 3.546875 3.546875 L 31.976562 3.546875 L 31.976562 31.976562 L 3.546875 31.976562 Z M 3.546875 3.546875 "/>
</clipPath>
<clipPath id="clip2">
  <path d="M 7 20 L 28.796875 20 L 28.796875 31.976562 L 7 31.976562 Z M 7 20 "/>
</clipPath>
</defs>
<g id="surface1">
<g clip-path="url(#clip1)" clip-rule="nonzero">
<path style=" stroke:none;fill-rule:nonzero;fill:rgb(70.19608%,70.19608%,70.19608%);fill-opacity:1;" d="M 31.976562 17.761719 C 31.976562 21.398438 30.613281 24.71875 28.363281 27.226562 C 25.765625 30.148438 21.980469 31.976562 17.761719 31.976562 C 13.554688 31.976562 9.769531 30.148438 7.160156 27.226562 C 4.910156 24.71875 3.546875 21.398438 3.546875 17.761719 C 3.546875 9.917969 9.917969 3.546875 17.761719 3.546875 C 25.617188 3.546875 31.976562 9.917969 31.976562 17.761719 "/>
</g>
<path style=" stroke:none;fill-rule:nonzero;fill:rgb(94.901961%,94.901961%,94.901961%);fill-opacity:1;" d="M 17.761719 20.378906 C 20.335938 20.378906 22.683594 17.46875 22.683594 14.269531 C 22.683594 11.25 22.101562 8.253906 17.761719 8.253906 C 13.425781 8.253906 12.839844 11.25 12.839844 14.269531 C 12.839844 17.46875 15.1875 20.378906 17.761719 20.378906 "/>
<g clip-path="url(#clip2)" clip-rule="nonzero">
<path style=" stroke:none;fill-rule:nonzero;fill:rgb(94.901961%,94.901961%,94.901961%);fill-opacity:1;" d="M 28.363281 27.226562 C 25.765625 30.148438 21.980469 31.976562 17.761719 31.976562 C 13.554688 31.976562 9.769531 30.148438 7.160156 27.226562 C 7.117188 25.476562 8.285156 21.40625 14.246094 20.152344 C 15.273438 21.191406 16.519531 21.785156 17.761719 21.785156 C 19.007812 21.785156 20.261719 21.191406 21.277344 20.152344 C 27.238281 21.40625 28.40625 25.476562 28.363281 27.226562 "/>
</g>
</g>
</svg>
